<?xml version="1.0" encoding="utf-8"?>
<!-- Generator: Adobe Illustrator 19.2.0, SVG Export Plug-In . SVG Version: 6.00 Build 0)  -->
<svg version="1.1" id="Layer_1" xmlns="http://www.w3.org/2000/svg" xmlns:xlink="http://www.w3.org/1999/xlink" x="0px" y="0px"
	 viewBox="0 0 90 90.8" style="enable-background:new 0 0 90 90.8;" xml:space="preserve">
<style type="text/css">
	.st0{fill:#99AFB3;}
</style>
<path class="st0" d="M70,68.7c0.2-1.1,0.2-2.1-0.1-3c1.4,0,2.8-0.1,4.2-0.2l0,0c2.1-0.2,3.8-1,5.2-2.6c1.4-1.6,2.1-3.4,1.9-5.5
	c-0.1-1.7-0.7-3.1-1.7-4.3c0.8-0.1,1.3-0.2,1.6-0.3l0,0c2.2-0.8,3.9-2.2,5-4.2l0,0c1.3-2.2,1.4-4.5,0.3-7.1l0,0
	c-1-2.6-3.3-4.2-6.7-4.7l0,0c-0.5-0.1-1.1-0.2-1.7-0.2c0.1-0.2,0.3-0.5,0.4-0.7l0,0c0.8-1.9,0.9-3.8,0.3-5.7l0,0
	c-0.7-2-2-3.4-3.7-4.3l0,0c-1.6-0.9-3.7-1.2-6.6-0.9l0,0c-2,0.2-10.5,2-25.4,5.6c0-0.1,0.1-0.1,0.1-0.2l0,0c1.1-1.8,1.9-3.8,2.5-6
	l0,0c0.7-2.4,0.4-5-0.7-7.8c-1.3-3.3-3.8-4.7-7.5-4.2l0,0c-3.5,0.3-5.8,2.7-6.9,7c-0.7,2.8-1.3,4.6-2,5.5l0,0
	c-0.7,0.8-1.9,1.7-3.5,2.6l0,0c-2.3,1.3-4.1,3.2-5.4,5.8l0,0c-0.4,0.8-0.7,1.5-1,2.4c-1.3-0.8-2.4-1.2-3.4-1.1
	c-3.2-0.1-5.8,1.8-7.7,5.7l0,0c-1.4,2.7-2.2,5.6-2.6,8.9l0,0c-0.4,3.3,0,6.6,1.1,9.9l0,0c1.2,3.9,4.4,5.9,9.4,6.1
	c0.3,0,0.5,0,0.7-0.1c4.3,7.5,12.8,9.6,25.6,6.4c6.5,2.1,13.1,3.5,20,4.1l0,0c1.9,0.2,3.7-0.4,5.3-1.6C68.7,72.3,69.7,70.7,70,68.7z
	 M42.6,66.8c-0.4-0.1-0.8-0.1-1.2,0c-12.6,3.3-20.3,0.6-23-8.2c-0.2-0.6-0.5-1-1-1.3s-1.1-0.3-1.6-0.2c-0.6,0.2-1,0.5-1.3,1
	s-0.3,1.1-0.2,1.6c0.1,0.2,0.1,0.4,0.2,0.6c-2.2-0.3-3.7-1.4-4.4-3.1l0,0c-0.9-2.7-1.2-5.4-0.9-8c0.3-2.7,1.1-5.2,2.2-7.5l0,0
	c1-2.1,2.3-3.2,3.8-3.3c0.6,0.1,1.3,0.5,2.2,1.3c-0.1,0.3-0.1,0.6-0.1,0.9c-0.1,0.6,0.1,1.1,0.4,1.6c0.4,0.5,0.8,0.7,1.4,0.8
	s1.1-0.1,1.6-0.4c0.5-0.4,0.7-0.8,0.8-1.4c0.3-2.3,0.9-4.4,1.9-6.3l0,0c0.9-1.8,2.1-3.1,3.7-4l0,0c2.2-1.3,3.8-2.5,4.7-3.6l0,0
	c1-1.1,1.9-3.5,2.8-7.2c0.5-2.2,1.6-3.5,3.3-3.8l0,0c1.5-0.2,2.5,0.3,3.1,1.6c0.7,1.8,0.9,3.5,0.5,5l0,0c-0.5,1.8-1.1,3.4-2,4.9l0,0
	c-1.1,1.8-1.7,3.5-2,4.9v0.1c0,0.1,0,0.2,0,0.2c0,0.7,0,2,0.1,3.8l0,0c0.1,1.5-0.4,3.3-1.4,5.5l0,0c-1,2.2-2.9,3.9-5.6,5.3
	c-0.5,0.3-0.9,0.7-1.1,1.2c-0.2,0.6-0.2,1.1,0.1,1.6c0.3,0.5,0.7,0.9,1.2,1.1c0.6,0.2,1.1,0.2,1.6-0.1c3.8-1.9,6.4-4.3,7.7-7.4l0,0
	c1.3-3,1.9-5.5,1.7-7.5l0,0c0-0.7-0.1-1.3-0.1-1.8c15.9-3.8,25-5.8,27.1-6l0,0c1.8-0.2,3.2,0,4.2,0.5l0,0c0.8,0.4,1.4,1.1,1.7,2l0,0
	c0.3,0.9,0.2,1.7-0.1,2.5l0,0c-0.4,0.8-0.9,1.3-1.7,1.6l0,0c-1.3,0.5-2.6,0.9-3.9,1.3h-0.1c-0.2,0.1-0.8,0.2-1.7,0.5h-0.1
	c-4.5,1.3-10.4,2.5-17.9,3.6c-0.6,0.1-1.1,0.4-1.4,0.8c-0.3,0.5-0.5,1-0.4,1.6s0.4,1,0.8,1.4c0.5,0.3,1,0.5,1.6,0.4
	c7.7-1.1,13.8-2.4,18.4-3.7c4.8-0.8,8.4-1,10.8-0.6l0,0c1.7,0.3,2.8,1,3.4,2.2l0,0c0.5,1.2,0.5,2.3,0,3.3l0,0
	c-0.7,1.1-1.6,1.9-2.8,2.4c-1.6,0.5-11.3,1.2-29.3,2h-0.1c-0.6,0-1.1,0.3-1.5,0.7s-0.6,0.9-0.6,1.5s0.2,1.1,0.7,1.5
	c0.4,0.4,0.9,0.6,1.5,0.6h0.1c14.4-0.2,22-0.4,22.8-0.4l0,0c0.9-0.1,1.7,0.2,2.4,0.8l0,0c0.7,0.6,1.1,1.4,1.1,2.3
	c0.1,0.9-0.2,1.7-0.8,2.4c-0.6,0.7-1.4,1.1-2.3,1.1c-1.5,0.1-2.9,0.2-4.4,0.2c-1,0-2.1,0-3.2,0c-0.1,0-0.2,0-0.3,0
	c-5.2,0-11.3-0.4-18.1-1.1C47,60,46.5,60.2,46,60.6s-0.7,0.8-0.8,1.4c-0.1,0.6,0.1,1.1,0.5,1.6c0.4,0.5,0.8,0.7,1.4,0.8
	c6.7,0.7,12.6,1.1,17.8,1.1l0,0c0.5,0.6,0.6,1.4,0.5,2.2l0,0c-0.1,0.9-0.6,1.6-1.3,2.2c-0.7,0.5-1.4,0.8-2.2,0.7
	C55.5,70.3,48.9,68.9,42.6,66.8z"/>
</svg>
