<?xml version="1.0" encoding="utf-8"?>
<!-- Generator: Adobe Illustrator 19.2.0, SVG Export Plug-In . SVG Version: 6.00 Build 0)  -->
<svg version="1.1" id="Layer_1" xmlns="http://www.w3.org/2000/svg" xmlns:xlink="http://www.w3.org/1999/xlink" x="0px" y="0px"
	 viewBox="0 0 90 90.8" style="enable-background:new 0 0 90 90.8;" xml:space="preserve">
<style type="text/css">
	.st0{fill:#99AFB3;}
</style>
<path class="st0" d="M6,53.2c1.3,4.1,4.6,6.3,10,6.4c0.2,0,0.3,0,0.5,0c0.5,0.7,1,1.4,1.6,2c2.3,2.4,5.1,3.6,8.3,3.6
	c0.3,0,0.8,0,1.5-0.2c0.4-0.1,0.6-0.1,0.7-0.1s0.1,0,0.2,0c0.6,1.1,1.4,2.1,2.4,3.2l0,0c2.5,2.6,5.1,3.8,8,3.8
	c2.5,0,4.7-0.7,6.6-2.1c2.2-1.6,3.2-3.5,3.2-5.6v-0.1c2.8-0.1,5.3-0.8,7.5-2.2l0,0c3-1.9,4.5-4.2,4.4-7c0-0.9-0.1-1.9-0.5-2.7
	c2.7,0.5,5.5,0.9,8.3,1.3c5.8,0.8,9.8,1,11.8,0.7l0,0c2.7-0.4,4.8-1.9,6.2-4.5l0,0c1.5-2.5,1.5-5.4-0.1-8.6c-1.3-3.2-5.5-5-12.5-5.5
	c-0.1,0-0.2,0-0.2,0c4.9-1.5,7.9-3.4,9-5.7l0,0c1.7-3.2,2-5.8,0.7-7.7c-1-1.9-2.5-3.2-4.6-3.9l0,0c-1.7-0.6-3.7-0.9-5.9-0.9l0,0
	c-2,0-6,1.1-12.1,3.1c-4.7,1.6-8.6,3.2-11.8,4.7c-0.8-1.4-1.9-2.8-3.2-4.3c-3.5-3.7-7.4-5.5-11.6-5.5c-3-0.1-6.4,1.4-10.2,4.5
	c-2.3,1.8-4.2,4.5-5.7,8.1c-0.9-0.5-1.8-0.7-2.8-0.7c-3.4-0.1-6.1,1.9-8.2,6c-1.4,2.8-2.3,6-2.7,9.4C4.4,46.2,4.8,49.7,6,53.2z
	 M39.2,61.9L39.2,61.9c1.6,0.8,3.2,1.4,4.8,1.8c0.1,0.2,0.2,0.4,0.4,0.5c-0.1,0.7-0.5,1.4-1.3,2c-1.1,0.8-2.4,1.2-3.9,1.2
	c-1.7,0-3.3-0.8-4.8-2.4l0,0c-1.4-1.4-2.1-2.8-2.2-4.1c0-0.8,0.2-1.5,0.6-2.1l0,0c0.3-0.3,0.6-0.5,1-0.5c0.2,0,0.3,0,0.4,0
	c0,0,0,0,0.1,0h-0.1c0.3,0.1,0.5,0.2,0.8,0.2C35.9,59.8,37.3,60.9,39.2,61.9z M11.6,35.3c1.1-2.2,2.5-3.4,4.1-3.5
	c0.4,0.1,0.8,0.2,1.2,0.6c-0.3,1.2-0.6,2.4-0.9,3.6c-0.1,0.6,0,1.2,0.3,1.7s0.8,0.9,1.4,1s1.2,0,1.7-0.3s0.9-0.8,1-1.4
	c1.5-6.6,3.6-11.2,6.6-13.7c2.8-2.3,5.2-3.4,7.4-3.5c3,0,5.8,1.4,8.4,4.1l0,0c1.6,1.7,2.7,3.3,3.3,4.9l0,0c0.2,0.6,0.3,1.2,0.3,1.8
	c0,1-0.2,1.9-0.7,2.6c-0.4,0.5-1,0.8-1.7,0.8c-1.1,0-2.1-0.5-2.9-1.3c-1.4-1.4-2.5-2.5-3.2-3.1c-0.1-0.2-0.2-0.5-0.4-0.7
	c-0.4-0.4-0.9-0.7-1.4-0.7c-0.6-0.1-1.1,0.1-1.6,0.4s-0.8,0.8-0.9,1.4c-0.2,0.8-0.1,1.9,0.4,3.3l0,0c0.2,0.7,0.4,1.1,0.4,1.4
	c0,1.4-0.6,2.9-1.8,4.4c-1,1.4-2.1,2.2-3.3,2.4c-0.6,0.1-1.1,0.4-1.5,0.9s-0.5,1.1-0.4,1.7c0.1,0.6,0.4,1.1,0.9,1.5s1.1,0.5,1.7,0.4
	c2.2-0.2,4.3-1.6,6.2-4.2c1.3-1.8,2.2-3.5,2.5-5.2c1.6,1.3,3.3,1.9,5.2,1.9c2.3,0,4-0.9,5.3-2.5l0,0c1-1.3,1.6-3.1,1.6-5.2
	c0-0.4,0-0.9-0.1-1.3c3-1.5,7-3.1,11.8-4.8c5.4-1.9,9-2.8,10.7-2.9l0,0c1.6-0.1,3,0.1,4.2,0.6l0,0c0.9,0.3,1.6,0.9,2.1,1.8
	c0.3,0.8,0,2-0.7,3.4l0,0c-1.2,1.8-4.4,3.3-9.8,4.5l0,0c-6.3,1.4-12.3,3-17.9,4.8c-0.6,0.2-1,0.5-1.3,1s-0.4,1.1-0.3,1.6
	c0.1,0.6,0.4,1,0.9,1.4c0.5,0.3,1,0.5,1.6,0.4c8.7-1.2,15.9-1.6,21.6-1.2c4.8,0.4,7.7,1.4,8.8,3c0.8,1.6,0.9,3.1,0.2,4.4l0,0
	c-0.7,1.3-1.7,2-3,2.2l0,0c-1.9,0.2-5.4,0-10.6-0.7c-5.4-0.7-10.5-1.7-15.5-2.9c-0.5-0.2-0.9-0.3-1.4-0.3H52c-0.2,0-0.4,0-0.6-0.1
	c-0.6-0.1-1.2,0.1-1.7,0.5s-0.8,0.9-0.8,1.5c-0.1,0.6,0.1,1.2,0.5,1.7s0.9,0.8,1.5,0.8c0.2,0,0.3,0,0.5,0h0.1c0.2,0,0.4,0.1,0.5,0.1
	c0,0,0.1,0,0.2,0.1c0.8,0.3,1.6,0.7,2.3,1.4l0,0c1,0.9,1.5,1.9,1.6,3C56,56,55.2,57,53.8,57.9l0,0c-1.7,1.1-3.6,1.6-5.8,1.6
	c-2.5,0-4.9-0.6-7-1.7l0,0c-2.1-1.1-3.2-2.5-3.3-4.1c0-0.6,0.2-1.1,0.8-1.4l0,0c0.8-0.4,1.8-0.6,3-0.6c0.4,0.1,1.3,0.3,2.7,0.9l0,0
	c1.3,0.5,2.1,0.9,2.4,1.1c0.5,0.4,1,0.6,1.6,0.6s1.1-0.3,1.5-0.8s0.6-1,0.6-1.6s-0.3-1.1-0.8-1.5c-0.4-0.4-1.6-1-3.7-1.9l0,0
	c-2.2-0.8-3.6-1.2-4.3-1.2c-2.1,0-3.8,0.4-5.1,1.1l0,0c-2.1,1.1-3.1,2.9-3.1,5.3c-1.7,0.1-3.1,0.8-4.2,2.2l0,0
	c-1,1.2-1.5,2.8-1.6,4.5c-0.2,0-0.3,0-0.6,0.1l0,0c-0.4,0.1-0.6,0.1-0.8,0.1c-1.9,0-3.6-0.8-5-2.2s-2.1-3-2.2-4.8
	c0-0.6-0.3-1.1-0.7-1.6c-0.5-0.4-1-0.6-1.6-0.6s-1.1,0.3-1.6,0.7s-0.6,1-0.6,1.6c0,0.4,0,0.8,0.1,1.1c-2.2-0.4-3.7-1.5-4.4-3.3
	c-1-2.8-1.3-5.7-0.9-8.5C9.7,40.4,10.5,37.7,11.6,35.3z"/>
</svg>
